<svg id="visual" viewBox="0 0 900 600" width="900" height="600" xmlns="http://www.w3.org/2000/svg" xmlns:xlink="http://www.w3.org/1999/xlink" version="1.1"><rect x="0" y="0" width="900" height="600" fill="#002233"></rect><path d="M0 442L21.5 455C43 468 86 494 128.8 498.5C171.7 503 214.3 486 257.2 468.7C300 451.3 343 433.7 385.8 429.8C428.7 426 471.3 436 514.2 441.2C557 446.3 600 446.7 642.8 457.8C685.7 469 728.3 491 771.2 485C814 479 857 445 878.5 428L900 411L900 601L878.5 601C857 601 814 601 771.2 601C728.3 601 685.7 601 642.8 601C600 601 557 601 514.2 601C471.3 601 428.7 601 385.8 601C343 601 300 601 257.2 601C214.3 601 171.7 601 128.8 601C86 601 43 601 21.5 601L0 601Z" fill="#0066FF" stroke-linecap="round" stroke-linejoin="miter"></path></svg>